<svg width="36" height="36" viewBox="0 0 36 36" fill="none" xmlns="http://www.w3.org/2000/svg">
<circle cx="18" cy="18" r="17.5" stroke="white"/>
<path d="M24.6874 8.52637H11.3127C9.77632 8.52637 8.52637 9.77632 8.52637 11.3127V24.6874C8.52637 26.2238 9.77632 27.4737 11.3127 27.4737H24.6874C26.2238 27.4737 27.4737 26.2238 27.4737 24.6874V11.3127C27.4737 9.77632 26.2238 8.52637 24.6874 8.52637ZM26.3592 24.6874C26.3592 25.6093 25.6093 26.3592 24.6874 26.3592H11.3127C10.3908 26.3592 9.64092 25.6093 9.64092 24.6874V11.3127C9.64092 10.3908 10.3908 9.64092 11.3127 9.64092H24.6874C25.6093 9.64092 26.3592 10.3908 26.3592 11.3127V24.6874Z" fill="white"/>
<path d="M18.0003 12.9849C15.2349 12.9849 12.9849 15.2349 12.9849 18.0003C12.9849 20.7658 15.2349 23.0158 18.0003 23.0158C20.7658 23.0158 23.0158 20.7658 23.0158 18.0003C23.0158 15.2349 20.7658 12.9849 18.0003 12.9849ZM18.0003 21.9013C15.8494 21.9013 14.0994 20.1513 14.0994 18.0003C14.0994 15.8494 15.8494 14.0994 18.0003 14.0994C20.1513 14.0994 21.9013 15.8494 21.9013 18.0003C21.9013 20.1513 20.1513 21.9013 18.0003 21.9013Z" fill="white"/>
<path d="M23.5727 10.7559C22.6508 10.7559 21.9009 11.5058 21.9009 12.4277C21.9009 13.3496 22.6508 14.0995 23.5727 14.0995C24.4946 14.0995 25.2445 13.3496 25.2445 12.4277C25.2445 11.5058 24.4946 10.7559 23.5727 10.7559ZM23.5727 12.985C23.2653 12.985 23.0154 12.7351 23.0154 12.4277C23.0154 12.1203 23.2653 11.8704 23.5727 11.8704C23.8801 11.8704 24.13 12.1203 24.13 12.4277C24.13 12.7351 23.8801 12.985 23.5727 12.985Z" fill="white" stroke="#282828" stroke-width="0.4"/>
</svg>
