<svg width="36" height="36" viewBox="0 0 36 36" fill="none" xmlns="http://www.w3.org/2000/svg">
<circle cx="18" cy="18" r="17.5" stroke="white"/>
<path d="M24.2864 19.9509C24.0711 19.6878 24.1177 19.5152 24.2826 19.2515C24.4883 18.9228 24.8979 18.4209 25.3315 17.8898C26.7221 16.1858 27.6195 15.006 27.4337 14.1645C27.3758 13.9027 27.1232 13.7148 26.8305 13.7148C26.8288 13.7148 23.8026 13.7155 22.6857 13.7205C22.4146 13.7216 22.1762 13.8791 22.0991 14.1157C21.9647 14.5281 21.44 15.6434 20.8041 16.6645C19.9795 17.9884 19.4392 18.4032 19.2488 18.4761L19.2188 18.4675C19.1565 18.3976 19.0484 18.2086 19.0039 17.7194C18.9575 17.2077 18.9986 16.5888 19.0385 15.9903C19.0851 15.2905 19.1255 14.686 19.0291 14.255C18.9628 14.0973 19.0133 13.5793 18.4831 13.4706C17.7529 13.3208 16.762 13.2707 16.0554 13.2639C14.3818 13.2488 13.8894 13.4686 13.6481 13.6626C13.4834 13.7949 13.4087 13.9972 13.4524 14.1931C13.4959 14.3891 13.651 14.5491 13.8593 14.6128C14.2345 14.7276 14.3684 14.8732 14.4756 15.561C14.5436 15.9999 14.5792 16.7369 14.5054 17.3944C14.4016 18.3221 14.1542 18.5078 14.13 18.5229C14.0773 18.5071 13.6663 18.3448 12.9242 16.9746C12.2856 15.7959 11.7496 14.3797 11.4992 13.7923C11.4073 13.5769 11.1795 13.4349 10.9255 13.4349H7.24675C7.0439 13.4349 6.85403 13.5259 6.73914 13.6781C6.6245 13.8303 6.5995 14.0243 6.67281 14.1966C7.82526 16.9118 9.14763 19.6928 11.0024 21.6389C12.9215 23.6528 15.2903 24.6316 18.2442 24.6316C18.584 24.6316 18.8595 24.381 18.8595 24.0718C18.8595 23.1061 19.0087 22.8194 19.2416 22.417C19.3707 22.1948 19.4969 22.0995 19.5656 22.0855C19.6278 22.0723 19.7377 22.1141 19.8598 22.197C20.2097 22.434 20.4876 22.7461 20.7815 23.0763C21.2052 23.5522 21.6434 24.0444 22.3392 24.3672C22.7184 24.5424 23.3967 24.6312 23.786 24.6259H26.8581C27.2078 24.6259 27.4873 24.3666 27.4729 24.0486C27.3977 22.3938 24.8488 20.594 24.2864 19.9509V19.9509ZM23.7817 23.5119C23.7783 23.5119 23.7752 23.5119 23.7719 23.5119C23.5152 23.5176 23.0489 23.4396 22.897 23.3691C22.4351 23.1548 22.1118 22.7918 21.7376 22.3717C21.4088 22.0021 21.0687 21.6201 20.595 21.2991C19.7223 20.7071 18.7342 20.8938 18.1533 21.8945C17.8279 22.4561 17.7017 22.8261 17.6493 23.4971C15.3245 23.3781 13.4957 22.5462 11.932 20.9052C10.3688 19.2649 9.18272 16.9234 8.14828 14.5546H10.4998C11.4194 16.8081 12.6122 19.6436 14.128 19.6436C14.5006 19.6436 14.8347 19.4999 15.0945 19.2279C16.0921 18.1832 15.6982 15.4322 15.6939 15.4042C15.6413 15.0654 15.5658 14.7094 15.3829 14.3921C16.1642 14.3641 17.2119 14.4103 17.8265 14.4934C17.8858 14.7849 17.8474 15.3631 17.8101 15.9225C17.7195 17.2844 17.6258 18.6904 18.4288 19.3318C18.4528 19.351 18.8986 19.5973 19.1738 19.6062C19.6742 19.6244 20.4924 19.4024 21.8157 17.3105C22.3553 16.4574 22.8566 15.475 23.1265 14.8332C24.0156 14.8317 25.2613 14.829 26.0792 14.8297C25.7184 15.5544 24.9207 16.5151 24.3434 17.2223C23.8673 17.8058 23.456 18.3096 23.2133 18.6976C22.7617 19.4192 22.8376 20.062 23.3078 20.6292C23.3102 20.6325 23.3128 20.6356 23.3154 20.6386C23.8992 21.3135 25.4146 22.3599 26.046 23.5119H23.7817Z" fill="white"/>
</svg>
