<svg width="36" height="36" viewBox="0 0 36 36" fill="none" xmlns="http://www.w3.org/2000/svg">
<circle cx="18" cy="18" r="17.5" stroke="white"/>
<path d="M25.3562 10.4209H10.6441C8.95405 10.4209 7.5791 11.7285 7.5791 13.3359V22.6638C7.5791 24.2712 8.95405 25.5788 10.6441 25.5788H25.3562C27.0463 25.5788 28.4212 24.2712 28.4212 22.6638V13.3359C28.4212 11.7285 27.0463 10.4209 25.3562 10.4209ZM27.1952 22.6638C27.1952 23.6283 26.3703 24.4128 25.3562 24.4128H10.6441C9.63003 24.4128 8.80511 23.6283 8.80511 22.6638V13.3359C8.80511 12.3714 9.63003 11.5869 10.6441 11.5869H25.3562C26.3703 11.5869 27.1952 12.3714 27.1952 13.3359V22.6638Z" fill="white"/>
<path d="M21.3632 17.4902L15.8462 14.5752C15.6565 14.475 15.4248 14.4777 15.2377 14.5825C15.0505 14.6873 14.9355 14.8783 14.9355 15.0849V21.0123C14.9355 21.2202 15.0522 21.4124 15.2413 21.5167C15.4305 21.6208 15.664 21.6215 15.8539 21.5179L21.3709 18.5054C21.5624 18.4009 21.68 18.206 21.6786 17.9958C21.6771 17.7856 21.5565 17.5924 21.3632 17.4902V17.4902ZM16.1616 20.0053V16.0757L19.819 18.0083L16.1616 20.0053Z" fill="white"/>
</svg>
